<?xml version="1.0" standalone="no"?>
<!DOCTYPE svg PUBLIC "-//W3C//DTD SVG 20010904//EN"
 "http://www.w3.org/TR/2001/REC-SVG-20010904/DTD/svg10.dtd">
<svg version="1.0" xmlns="http://www.w3.org/2000/svg"
 width="2000.000000pt" height="2000.000000pt" viewBox="0 0 2000.000000 2000.000000"
 preserveAspectRatio="xMidYMid meet">

<g transform="translate(0.000000,2000.000000) scale(0.100000,-0.100000)"
fill="#000000" stroke="none">
<path d="M10715 14970 c-27 -4 -77 -13 -110 -19 -33 -6 -81 -11 -106 -11 -26
0 -64 -6 -85 -14 -22 -7 -64 -16 -94 -20 -30 -4 -75 -13 -100 -21 -45 -14 -95
-27 -180 -47 -25 -6 -50 -14 -55 -19 -6 -4 -29 -12 -50 -18 -56 -14 -125 -39
-157 -56 -14 -8 -32 -15 -40 -15 -8 0 -31 -9 -53 -20 -22 -11 -44 -20 -51 -20
-6 0 -17 -7 -24 -15 -7 -8 -19 -15 -27 -15 -8 0 -26 -9 -40 -20 -14 -11 -34
-20 -44 -20 -11 0 -19 -4 -19 -9 0 -5 -24 -23 -52 -41 -29 -17 -84 -53 -123
-81 -38 -28 -94 -67 -124 -87 -30 -20 -68 -49 -85 -64 -17 -16 -34 -28 -37
-28 -4 0 -50 -34 -103 -75 -53 -41 -99 -75 -102 -75 -4 0 -12 -6 -18 -14 -11
-13 -208 -167 -276 -216 -19 -13 -39 -28 -45 -32 -41 -34 -139 -106 -185 -136
-30 -20 -57 -39 -60 -42 -13 -13 -70 -50 -79 -50 -5 0 -17 -7 -26 -16 -20 -20
-90 -37 -118 -28 -34 11 -287 199 -322 239 -5 7 -42 37 -81 68 -40 31 -87 70
-105 88 -19 17 -78 67 -132 110 -54 44 -113 93 -130 109 -18 16 -36 30 -40 30
-5 0 -27 15 -50 34 -23 18 -46 35 -52 37 -26 11 -85 52 -85 60 0 5 -9 9 -19 9
-11 0 -26 6 -33 13 -15 15 -28 23 -155 85 -49 24 -105 53 -125 63 -20 10 -45
19 -55 19 -10 0 -27 6 -38 14 -11 7 -38 16 -59 20 -22 4 -49 14 -60 22 -11 8
-34 14 -51 14 -17 0 -39 6 -50 14 -11 7 -45 17 -75 21 -30 4 -67 14 -82 21
-15 8 -45 14 -67 14 -22 0 -60 6 -83 14 -24 8 -77 18 -118 21 -41 4 -121 13
-176 21 -119 16 -358 19 -435 4 -30 -6 -101 -15 -159 -21 -58 -5 -124 -16
-148 -24 -23 -8 -59 -15 -80 -15 -20 0 -49 -6 -64 -14 -14 -8 -46 -17 -70 -21
-24 -4 -55 -14 -70 -21 -15 -8 -36 -14 -48 -14 -11 0 -37 -9 -57 -20 -21 -11
-47 -20 -59 -20 -12 0 -27 -7 -34 -15 -7 -8 -21 -15 -32 -15 -10 0 -36 -9 -56
-19 -20 -11 -73 -37 -117 -59 -44 -22 -96 -49 -115 -61 -19 -12 -48 -28 -65
-36 -29 -16 -48 -27 -156 -93 -66 -40 -190 -127 -198 -139 -3 -5 -42 -38 -86
-73 -100 -81 -241 -222 -320 -319 -33 -41 -72 -88 -88 -105 -15 -17 -27 -34
-27 -37 0 -4 -17 -29 -38 -56 -20 -26 -43 -59 -50 -73 -7 -14 -21 -38 -32 -55
-11 -16 -25 -39 -30 -50 -6 -11 -22 -38 -35 -60 -13 -22 -45 -83 -70 -135 -26
-52 -53 -107 -61 -122 -8 -14 -14 -33 -14 -41 0 -8 -7 -20 -15 -27 -8 -7 -15
-22 -15 -34 0 -12 -9 -38 -20 -59 -11 -20 -20 -50 -20 -66 0 -16 -6 -34 -14
-40 -7 -6 -16 -31 -19 -56 -4 -25 -13 -59 -22 -75 -8 -16 -15 -45 -15 -65 0
-20 -6 -48 -14 -64 -8 -15 -18 -56 -22 -92 -4 -35 -13 -78 -21 -96 -7 -18 -13
-54 -13 -80 0 -26 -7 -77 -16 -113 -20 -85 -31 -707 -15 -855 15 -143 30 -254
42 -300 6 -22 15 -71 21 -110 6 -38 16 -82 24 -97 8 -15 14 -44 14 -65 0 -21
7 -48 15 -60 8 -11 17 -40 21 -64 3 -24 13 -54 20 -66 8 -12 14 -33 14 -45 0
-13 9 -40 20 -61 11 -20 20 -46 20 -56 0 -11 7 -32 15 -48 21 -40 55 -120 55
-130 0 -13 183 -377 197 -391 7 -7 13 -22 13 -32 0 -10 5 -22 11 -26 6 -3 17
-21 25 -38 8 -17 32 -58 54 -91 21 -33 53 -82 70 -110 17 -27 53 -81 81 -120
28 -38 62 -87 75 -108 14 -21 32 -46 42 -55 9 -10 31 -38 47 -62 17 -25 35
-49 41 -55 6 -5 39 -45 73 -88 34 -44 67 -85 74 -92 32 -34 142 -158 184 -210
49 -60 401 -417 484 -490 168 -150 208 -186 256 -233 30 -29 88 -79 129 -112
41 -33 93 -77 117 -99 23 -21 80 -70 127 -107 46 -38 91 -75 100 -84 18 -17
57 -47 140 -111 30 -23 63 -49 72 -58 19 -18 27 -24 83 -66 22 -16 45 -34 50
-41 6 -6 55 -46 110 -89 55 -44 105 -84 110 -91 6 -7 28 -24 49 -38 38 -25
123 -94 156 -126 9 -9 33 -29 55 -45 43 -33 81 -64 129 -108 17 -16 47 -39 67
-52 20 -13 50 -36 65 -50 16 -14 43 -38 59 -54 17 -15 48 -40 70 -56 51 -38
90 -71 135 -115 20 -19 70 -62 111 -94 115 -93 399 -366 418 -403 9 -18 8 -29
-3 -50 -22 -43 -119 -127 -168 -146 -10 -3 -18 -11 -18 -16 0 -5 -12 -14 -27
-20 -16 -6 -59 -29 -98 -51 -38 -22 -77 -43 -85 -46 -8 -4 -53 -25 -100 -46
-114 -53 -137 -63 -190 -86 -25 -11 -61 -27 -82 -36 -20 -9 -45 -16 -56 -16
-11 0 -25 -6 -31 -14 -7 -8 -28 -17 -48 -21 -20 -4 -46 -13 -57 -21 -11 -8
-28 -14 -38 -14 -10 0 -35 -9 -55 -20 -21 -11 -49 -20 -63 -20 -14 0 -34 -7
-44 -15 -11 -8 -30 -15 -43 -15 -13 0 -41 -9 -63 -20 -22 -11 -50 -20 -62 -20
-13 0 -32 -6 -43 -14 -11 -7 -40 -16 -64 -20 -24 -4 -53 -13 -64 -21 -12 -8
-32 -15 -45 -15 -13 0 -35 -6 -50 -14 -15 -7 -44 -16 -64 -20 -20 -4 -50 -13
-65 -21 -15 -8 -38 -15 -51 -15 -13 0 -35 -6 -50 -14 -15 -7 -46 -16 -68 -20
-23 -3 -54 -13 -70 -21 -16 -8 -44 -15 -62 -15 -18 0 -45 -6 -60 -14 -15 -7
-52 -17 -82 -21 -30 -4 -64 -14 -75 -21 -11 -8 -38 -14 -60 -14 -22 0 -53 -7
-69 -15 -16 -8 -54 -18 -85 -21 -31 -4 -61 -11 -68 -16 -7 -5 -44 -14 -84 -19
-39 -5 -78 -14 -85 -20 -7 -5 -39 -13 -71 -16 -32 -3 -66 -10 -76 -15 -10 -5
-55 -16 -100 -23 -179 -31 -214 -37 -262 -50 -27 -7 -80 -16 -118 -20 -37 -3
-79 -10 -94 -16 -15 -5 -63 -12 -107 -15 -45 -3 -110 -12 -146 -19 -39 -8
-145 -15 -263 -17 l-199 -3 -18 25 c-11 14 -25 32 -33 41 -8 9 -33 41 -56 70
-117 151 -121 155 -236 226 -21 13 -24 14 -90 43 -131 56 -304 88 -397 72 -35
-6 -80 -14 -102 -17 -21 -4 -46 -10 -55 -15 -9 -4 -56 -27 -106 -51 -49 -24
-94 -48 -100 -54 -5 -6 -29 -24 -53 -39 -75 -50 -185 -177 -227 -261 -8 -16
-18 -37 -23 -45 -33 -58 -52 -102 -52 -120 0 -11 -8 -33 -17 -47 -15 -23 -18
-53 -18 -203 0 -151 2 -180 18 -203 9 -14 17 -34 17 -44 1 -21 34 -90 74 -153
53 -82 250 -270 284 -270 5 0 19 -9 32 -20 13 -11 31 -20 40 -20 10 0 23 -7
30 -15 7 -8 22 -15 33 -15 11 0 39 -9 61 -19 98 -45 430 -45 516 1 19 10 42
18 52 18 9 0 19 4 22 9 3 4 32 21 63 37 70 35 241 201 328 318 95 129 174 196
231 196 14 0 41 7 61 15 20 9 71 18 112 21 42 3 96 12 121 19 25 7 79 16 120
19 41 4 93 13 115 21 22 8 68 14 101 15 34 0 77 6 95 14 19 7 68 17 109 20 41
4 94 14 118 22 23 8 63 14 87 14 24 0 64 7 87 15 24 8 75 18 113 24 39 5 88
14 110 20 22 5 67 15 100 22 110 21 190 38 230 48 56 14 129 30 205 46 36 7
78 18 93 24 16 6 41 11 55 11 15 0 53 9 85 20 31 11 72 20 90 20 18 0 42 7 53
15 10 8 37 15 59 15 22 0 58 9 80 20 22 11 55 19 73 20 18 0 45 6 60 14 15 7
46 17 70 21 24 4 56 13 70 21 15 8 37 14 50 14 13 0 35 6 50 14 15 8 46 18 67
21 22 4 45 11 50 16 6 4 29 12 50 18 22 5 72 21 110 36 39 15 87 30 107 34 21
5 43 13 50 18 7 6 29 14 48 18 19 4 44 14 55 21 11 8 30 14 42 14 13 0 40 9
60 20 21 11 47 20 59 20 12 0 27 7 34 15 7 8 21 15 31 15 11 0 36 9 56 20 21
11 47 20 59 20 12 0 27 7 34 15 7 8 19 15 27 15 8 0 54 18 101 41 176 82 237
109 250 109 7 0 12 4 12 10 0 5 12 13 28 16 15 4 43 15 62 26 19 10 42 18 51
18 9 0 22 7 29 15 7 8 24 15 38 15 14 0 33 7 42 15 10 9 35 19 56 22 21 4 45
12 52 20 7 7 24 13 37 13 13 0 48 9 77 21 46 18 69 20 168 17 82 -3 123 -9
145 -21 17 -9 37 -17 45 -17 9 0 24 -6 35 -14 11 -7 34 -17 52 -20 17 -4 37
-14 44 -22 6 -8 19 -14 28 -14 9 0 25 -6 36 -14 11 -7 31 -17 45 -21 13 -4 30
-14 38 -21 7 -8 22 -14 31 -14 10 0 24 -6 30 -14 7 -8 25 -18 41 -21 16 -3 34
-13 41 -21 6 -8 18 -14 26 -14 8 0 27 -7 41 -15 47 -25 180 -84 206 -91 14 -3
30 -12 37 -20 6 -8 20 -14 30 -14 11 0 36 -9 56 -20 21 -11 44 -20 51 -20 14
0 28 -6 109 -48 23 -12 50 -22 61 -22 10 0 27 -7 38 -15 10 -8 25 -15 33 -15
8 0 35 -10 60 -21 25 -12 66 -30 91 -41 25 -11 59 -26 75 -33 17 -8 57 -24 90
-37 33 -12 69 -28 80 -35 11 -7 29 -13 42 -13 12 0 28 -6 35 -14 8 -7 30 -17
49 -21 19 -4 43 -14 54 -21 11 -8 27 -14 37 -14 10 0 35 -9 55 -20 21 -11 47
-20 59 -20 12 0 27 -6 33 -14 6 -7 29 -16 51 -19 22 -3 47 -12 55 -21 9 -9 29
-16 43 -16 15 0 36 -6 47 -13 11 -8 38 -19 60 -25 74 -20 135 -44 135 -53 0
-5 8 -9 19 -9 10 0 30 -9 44 -20 14 -11 34 -20 45 -20 11 0 25 -6 31 -14 6 -8
31 -17 56 -20 24 -4 49 -14 55 -21 7 -8 27 -15 45 -15 18 0 38 -7 45 -15 6 -7
31 -17 55 -21 25 -3 50 -12 56 -20 7 -9 33 -14 73 -14 37 0 73 -6 91 -16 17
-9 59 -19 95 -21 36 -3 74 -12 85 -19 13 -9 52 -14 115 -15 52 0 133 -5 180
-10 135 -14 230 -13 585 8 57 3 107 11 115 18 8 7 34 15 56 19 23 3 54 13 70
21 16 8 42 15 57 15 15 0 40 6 55 14 15 7 47 16 71 20 24 4 53 13 64 21 12 8
35 15 52 15 17 0 40 6 51 14 11 8 38 18 60 22 21 4 48 13 59 20 11 8 29 14 40
14 11 0 38 9 60 20 22 11 49 20 61 20 12 0 27 7 34 15 7 8 19 15 27 15 8 0 27
6 41 14 15 8 71 36 125 63 132 65 150 74 165 90 7 7 18 13 23 13 13 0 72 41
82 58 4 6 12 12 18 12 25 0 117 81 350 308 81 79 163 152 183 163 45 24 184
26 266 4 30 -8 82 -15 114 -15 33 0 87 -7 121 -15 49 -13 109 -15 306 -12 236
4 324 13 419 42 25 7 63 17 84 21 22 4 51 13 65 20 14 8 33 14 42 14 8 0 24 7
35 15 10 8 25 15 33 15 8 0 70 28 137 63 162 81 186 94 193 104 9 12 69 53 78
53 4 0 22 13 38 28 17 15 66 56 110 91 101 81 245 222 287 281 17 25 46 61 63
80 47 54 175 244 200 297 8 17 19 34 25 38 5 3 10 14 10 24 0 10 9 26 20 36
11 10 20 24 20 32 0 11 53 123 81 173 5 8 14 26 19 40 6 14 17 40 25 58 8 17
21 47 29 65 8 17 24 53 35 78 12 25 21 52 21 60 0 8 5 20 11 26 12 12 46 99
56 143 3 14 11 32 18 40 7 8 16 31 20 50 4 19 13 45 21 57 8 12 14 30 14 40 0
10 9 35 20 56 11 20 20 44 20 53 0 9 6 28 14 42 7 15 23 52 34 82 30 83 92
241 108 278 8 18 14 38 14 45 0 7 9 29 20 50 11 20 20 45 20 55 0 10 6 26 14
37 7 11 17 36 21 55 4 19 14 44 21 55 8 11 14 26 14 35 0 16 34 108 56 153 8
16 14 37 14 48 0 10 9 36 20 56 11 21 20 47 20 58 0 12 7 30 15 41 8 10 15 28
15 39 0 11 7 33 15 48 8 15 19 42 24 60 16 51 41 119 56 154 8 17 15 40 15 50
0 11 7 28 15 39 8 10 15 30 15 44 0 14 9 43 20 65 11 22 19 52 20 66 0 14 7
34 15 45 8 10 15 30 15 44 0 14 9 45 20 69 11 24 20 55 20 70 0 15 7 36 15 48
8 11 17 40 21 64 4 23 13 54 21 68 7 14 13 37 13 51 0 14 7 38 15 54 8 16 18
47 21 70 4 22 11 50 17 60 9 18 14 39 50 192 8 33 19 70 26 82 6 11 11 35 11
52 0 17 7 47 15 67 8 20 18 61 21 92 4 31 13 68 20 83 8 15 14 45 14 66 0 22
9 68 20 102 11 34 20 85 20 112 0 27 6 63 14 81 7 18 17 73 21 122 4 50 12 99
17 109 6 11 14 72 19 136 4 63 12 127 18 142 5 14 13 86 16 159 4 74 13 181
21 238 16 120 19 1081 3 1186 -4 33 -13 143 -19 245 -6 102 -15 202 -21 222
-18 67 -23 166 -9 183 40 48 204 -26 333 -151 12 -13 17 -33 17 -74 0 -44 7
-70 36 -125 19 -39 45 -81 57 -94 30 -32 130 -109 159 -121 12 -5 30 -14 38
-19 8 -4 38 -18 65 -31 28 -13 58 -27 67 -31 36 -18 138 -49 179 -55 24 -3 66
-12 93 -20 63 -18 170 -17 221 1 22 8 49 15 60 15 73 1 228 127 276 225 21 45
24 62 23 165 -1 114 -1 116 -43 200 -23 47 -47 94 -54 106 -76 127 -280 309
-427 379 -30 15 -68 33 -84 41 -16 8 -62 21 -103 29 -118 23 -225 -9 -305 -90
-42 -41 -85 -52 -175 -44 -44 5 -111 3 -153 -2 -41 -6 -104 -14 -140 -18 -36
-5 -80 -16 -97 -25 -19 -9 -56 -16 -92 -16 l-60 0 -21 48 c-26 55 -89 182
-116 232 -11 19 -25 39 -31 43 -7 4 -13 12 -13 18 0 10 -20 41 -80 120 -19 25
-42 56 -50 68 -8 13 -29 38 -46 58 -27 30 -32 45 -37 108 -3 40 -9 81 -15 91
-5 11 -18 37 -28 59 -27 57 -89 121 -164 170 -72 46 -171 95 -193 95 -8 0 -20
7 -27 15 -7 8 -26 15 -42 15 -16 0 -43 7 -61 16 -95 50 -458 49 -529 0 -12 -9
-30 -16 -39 -16 -25 0 -150 -126 -183 -183 -26 -45 -27 -55 -27 -167 0 -100 3
-126 21 -159 11 -22 20 -45 20 -50 0 -22 104 -165 163 -223 78 -78 300 -238
330 -238 7 0 26 -9 42 -20 17 -11 41 -20 55 -20 14 -1 36 -7 50 -15 15 -8 53
-14 91 -15 70 0 125 18 203 67 38 24 40 25 120 12 92 -14 112 -24 179 -88 33
-32 47 -53 47 -72 0 -20 -12 -37 -47 -66 -52 -43 -164 -113 -181 -113 -5 0
-15 -6 -21 -14 -7 -8 -26 -18 -42 -21 -16 -4 -29 -10 -29 -15 0 -5 -15 -14
-34 -20 -19 -6 -40 -18 -46 -26 -7 -7 -18 -14 -25 -14 -25 0 -287 -179 -330
-225 -5 -6 -28 -23 -50 -38 -22 -14 -51 -37 -65 -49 -33 -30 -97 -78 -104 -78
-3 0 -14 -8 -24 -17 -32 -31 -75 -66 -132 -109 -31 -23 -72 -58 -93 -78 -21
-20 -70 -62 -110 -94 -157 -125 -698 -664 -831 -827 -26 -33 -81 -96 -121
-140 -41 -44 -88 -100 -106 -124 -17 -24 -45 -59 -62 -78 -17 -19 -37 -42 -44
-51 -7 -9 -32 -42 -56 -72 -23 -31 -55 -69 -70 -85 -15 -17 -48 -60 -74 -97
-25 -38 -48 -68 -52 -68 -3 0 -19 -23 -36 -50 -16 -27 -33 -50 -36 -50 -4 0
-19 -19 -35 -42 -16 -24 -49 -70 -73 -103 -44 -58 -69 -92 -149 -205 -21 -30
-56 -80 -77 -110 -44 -62 -172 -250 -222 -325 -18 -27 -40 -57 -48 -66 -8 -9
-15 -18 -15 -21 0 -8 -105 -170 -124 -191 -9 -9 -16 -21 -16 -26 0 -4 -15 -28
-33 -52 -18 -24 -38 -55 -45 -69 -14 -28 -93 -147 -114 -170 -7 -8 -19 -26
-26 -40 -24 -47 -40 -73 -49 -79 -5 -3 -14 -17 -21 -31 -13 -28 -22 -42 -69
-112 -18 -26 -33 -50 -33 -52 0 -3 -28 -46 -62 -96 -35 -50 -70 -103 -78 -119
-8 -15 -26 -43 -40 -62 -27 -37 -52 -79 -70 -119 -6 -13 -15 -27 -20 -30 -4
-3 -19 -25 -32 -50 -13 -25 -37 -65 -53 -90 -43 -66 -53 -82 -70 -115 -9 -16
-24 -43 -35 -60 -10 -16 -49 -91 -85 -165 -37 -74 -73 -147 -81 -162 -8 -14
-14 -33 -14 -41 0 -9 -6 -22 -13 -29 -7 -7 -18 -29 -24 -48 -19 -60 -35 -104
-48 -135 -20 -47 -45 -126 -55 -173 -5 -23 -14 -50 -19 -60 -5 -9 -12 -42 -16
-72 -4 -30 -14 -72 -21 -94 -8 -21 -14 -64 -14 -96 0 -32 -5 -104 -11 -161
-11 -111 1 -381 22 -489 6 -30 17 -84 23 -120 7 -36 18 -78 24 -93 7 -16 12
-36 12 -45 0 -24 46 -150 86 -237 7 -16 18 -41 24 -55 5 -14 14 -32 18 -40 5
-8 14 -24 20 -35 35 -62 76 -131 82 -135 3 -3 22 -30 42 -60 21 -30 58 -84 83
-120 84 -119 120 -171 132 -193 19 -32 16 -71 -7 -97 -11 -13 -20 -27 -20 -32
0 -13 -84 -121 -140 -182 -25 -27 -72 -69 -105 -94 -33 -25 -64 -50 -70 -56
-5 -7 -32 -25 -60 -41 -27 -16 -56 -35 -63 -42 -7 -7 -22 -13 -32 -13 -10 0
-22 -4 -25 -10 -7 -12 -103 -60 -120 -60 -7 0 -18 -6 -24 -14 -7 -8 -24 -17
-39 -21 -15 -3 -47 -15 -72 -26 -25 -12 -54 -25 -65 -30 -29 -12 -105 -39
-140 -49 -16 -4 -47 -15 -67 -24 -21 -9 -48 -16 -60 -16 -13 0 -32 -7 -42 -15
-11 -8 -33 -15 -48 -15 -16 0 -50 -9 -75 -21 -43 -20 -62 -21 -377 -21 -278 0
-338 3 -376 17 -25 8 -76 18 -115 22 -38 3 -79 10 -89 16 -11 5 -45 15 -75 23
-102 23 -163 41 -276 79 -27 9 -67 20 -88 25 -21 4 -44 13 -50 19 -6 6 -23 11
-37 11 -14 0 -42 9 -63 20 -20 11 -47 20 -60 20 -12 0 -31 6 -42 14 -11 7 -36
17 -55 21 -19 4 -44 14 -55 21 -11 8 -27 14 -37 14 -10 0 -35 9 -55 20 -21 11
-43 20 -50 20 -6 0 -24 6 -40 14 -15 8 -50 24 -78 36 -27 12 -61 27 -75 34
-14 7 -37 16 -52 20 -16 3 -28 10 -28 15 0 5 -13 12 -29 16 -16 3 -46 15 -67
26 -21 10 -44 19 -51 19 -7 0 -13 4 -13 10 0 5 -18 14 -40 20 -22 6 -40 15
-40 20 0 6 -8 10 -19 10 -10 0 -30 9 -44 20 -14 11 -35 20 -46 20 -12 0 -24 6
-27 14 -3 8 -18 18 -34 21 -16 3 -34 13 -41 21 -6 8 -16 14 -21 14 -12 0 -148
80 -166 97 -7 7 -18 13 -23 13 -10 0 -62 35 -87 58 -7 6 -18 12 -23 12 -14 0
-141 98 -221 171 -98 88 -95 110 30 211 42 34 82 68 87 74 10 12 95 78 134
104 13 8 39 30 59 47 20 18 40 33 43 33 4 0 40 26 82 58 42 31 99 73 127 92
28 19 84 60 124 90 41 30 83 62 96 70 12 8 36 28 53 44 18 15 47 35 65 42 17
8 32 18 32 22 0 4 30 27 67 52 37 25 81 57 97 73 17 15 39 30 49 33 10 3 29
16 42 28 14 13 44 36 67 52 24 16 74 53 111 82 38 28 72 52 76 52 3 0 20 12
36 28 17 15 50 41 74 57 25 17 55 40 68 51 13 12 42 34 65 50 42 27 59 41 96
75 9 9 42 33 72 54 30 21 63 45 72 54 37 34 54 47 94 74 23 15 59 44 80 63 22
20 55 46 74 59 19 12 47 33 61 46 61 56 96 86 131 109 20 14 66 51 101 83 36
32 84 71 106 87 22 16 56 44 74 62 63 60 111 103 167 148 165 134 735 697 850
840 56 68 110 133 139 165 15 17 47 57 71 90 56 77 61 83 83 103 9 9 17 22 17
28 0 6 15 31 34 55 18 24 36 54 40 67 4 12 12 22 17 22 5 0 14 10 20 23 14 30
32 62 47 79 7 9 24 37 39 64 14 27 37 67 49 89 13 22 30 54 38 71 8 17 19 35
25 38 6 4 11 16 11 26 0 10 7 25 15 34 8 8 18 28 21 45 4 17 13 36 20 42 8 6
14 19 14 28 0 9 9 31 20 49 11 18 20 41 20 51 0 10 7 24 15 31 8 7 15 21 15
31 0 11 9 36 20 56 11 21 20 44 20 51 0 8 6 26 14 40 21 41 56 136 56 152 0 8
6 27 14 41 7 14 16 43 20 64 4 22 14 48 22 59 8 11 14 36 14 56 0 19 6 47 14
61 7 14 17 52 21 84 4 32 13 68 20 79 7 12 15 54 18 93 2 40 9 78 15 86 6 7
14 53 17 102 4 50 14 115 22 145 24 82 24 909 1 990 -9 30 -18 91 -21 135 -3
44 -13 97 -22 117 -8 21 -15 58 -15 83 0 25 -6 56 -14 68 -8 12 -18 45 -22 72
-3 28 -13 62 -20 77 -8 15 -14 37 -14 50 -1 13 -9 41 -20 63 -11 22 -20 49
-20 60 0 11 -7 29 -15 39 -8 11 -15 27 -15 36 0 8 -9 32 -20 53 -11 20 -20 43
-20 51 0 7 -7 19 -15 26 -8 7 -15 23 -15 35 0 12 -6 28 -14 34 -8 7 -18 25
-21 41 -3 16 -13 34 -21 41 -8 6 -14 20 -14 30 0 10 -5 21 -11 25 -6 3 -18 21
-25 38 -8 17 -26 49 -39 71 -13 22 -27 47 -31 55 -4 8 -23 36 -41 63 -18 26
-49 71 -69 100 -21 28 -54 70 -74 93 -21 22 -46 54 -56 70 -25 40 -260 273
-309 306 -22 15 -57 42 -77 60 -20 18 -46 40 -58 48 -12 8 -45 32 -73 53 -28
20 -54 37 -58 37 -5 0 -28 13 -52 30 -24 16 -56 34 -70 39 -15 6 -27 15 -27
21 0 5 -6 10 -14 10 -8 0 -45 15 -82 34 -38 19 -91 44 -119 56 -27 12 -63 28
-80 35 -91 41 -129 55 -144 55 -9 0 -28 6 -43 14 -14 8 -46 17 -70 21 -24 4
-56 13 -73 20 -16 7 -62 16 -102 19 -39 3 -84 11 -100 18 -33 14 -599 21 -678
8z m625 -662 c25 -5 77 -14 115 -19 39 -6 84 -15 100 -21 17 -5 53 -14 81 -19
28 -5 64 -16 80 -24 16 -8 37 -15 47 -15 11 0 31 -7 45 -15 15 -8 50 -24 77
-35 64 -27 126 -59 146 -76 8 -8 21 -14 27 -14 6 0 17 -6 24 -13 7 -6 45 -33
83 -59 80 -54 310 -284 372 -373 141 -202 166 -240 207 -322 15 -32 32 -65 37
-73 5 -8 14 -26 19 -40 6 -14 17 -37 25 -52 8 -14 15 -35 15 -45 0 -10 6 -27
14 -38 7 -11 17 -36 21 -55 4 -19 13 -45 21 -57 8 -12 14 -35 14 -50 0 -15 7
-41 16 -58 8 -16 18 -50 21 -75 3 -25 11 -56 18 -70 7 -14 15 -51 19 -84 3
-32 11 -66 16 -77 6 -10 13 -46 16 -81 3 -35 12 -90 19 -123 37 -158 37 -775
0 -960 -7 -38 -18 -95 -24 -125 -22 -120 -33 -166 -47 -193 -8 -16 -14 -41
-14 -55 0 -15 -9 -44 -20 -65 -11 -20 -20 -47 -20 -60 0 -12 -6 -32 -14 -43
-8 -11 -17 -37 -21 -57 -4 -20 -13 -41 -21 -48 -8 -6 -14 -20 -14 -31 0 -10
-8 -36 -19 -56 -10 -20 -26 -55 -36 -77 -9 -22 -21 -47 -26 -55 -5 -8 -25 -46
-44 -85 -20 -38 -45 -83 -56 -100 -10 -16 -24 -42 -30 -57 -6 -16 -15 -28 -19
-28 -4 0 -13 -12 -19 -27 -6 -16 -29 -55 -51 -88 -22 -33 -46 -71 -53 -85 -15
-31 -54 -87 -129 -187 -32 -42 -58 -78 -58 -82 0 -3 -15 -23 -33 -43 -17 -20
-39 -47 -47 -59 -14 -21 -114 -144 -209 -259 -150 -178 -750 -775 -894 -889
-21 -16 -76 -65 -123 -108 -47 -43 -102 -89 -122 -103 -35 -24 -87 -67 -121
-101 -9 -9 -43 -35 -76 -59 -33 -24 -62 -47 -65 -51 -3 -4 -41 -35 -85 -68
-44 -33 -87 -67 -95 -74 -8 -8 -40 -31 -70 -52 -30 -21 -76 -55 -101 -74 -25
-20 -56 -43 -69 -51 -12 -8 -29 -22 -38 -30 -18 -18 -129 -98 -192 -140 -25
-16 -54 -36 -65 -45 -11 -9 -42 -31 -70 -49 -27 -17 -74 -49 -102 -69 -29 -20
-75 -53 -103 -72 -28 -19 -72 -51 -100 -70 -27 -19 -54 -35 -58 -35 -5 0 -17
-9 -27 -20 -10 -11 -22 -20 -27 -20 -4 0 -31 -16 -58 -35 -27 -19 -52 -35 -55
-35 -3 0 -27 -15 -53 -32 -26 -18 -55 -37 -64 -43 -8 -5 -35 -23 -59 -39 -24
-17 -71 -47 -104 -68 -33 -21 -69 -45 -80 -53 -10 -8 -23 -15 -27 -15 -9 0
-63 -36 -86 -57 -7 -7 -18 -13 -23 -13 -9 0 -68 -38 -79 -51 -3 -3 -17 -12
-31 -20 -15 -8 -68 -42 -119 -76 -51 -35 -94 -63 -97 -63 -3 0 -22 -13 -42
-29 -36 -28 -67 -47 -128 -75 -17 -9 -34 -20 -37 -25 -3 -5 -18 -12 -32 -15
-15 -4 -33 -14 -41 -21 -8 -8 -26 -15 -41 -15 -15 -1 -38 -7 -52 -15 -33 -19
-167 -19 -200 0 -14 8 -36 14 -48 15 -13 0 -35 9 -49 20 -14 11 -32 20 -40 20
-7 0 -26 8 -41 19 -15 10 -65 44 -112 75 -87 58 -181 124 -263 186 -25 19 -69
51 -97 70 -28 19 -84 60 -124 90 -41 30 -83 62 -96 70 -12 8 -38 30 -58 47
-20 18 -40 33 -43 33 -6 0 -120 87 -129 99 -3 3 -16 12 -30 19 -14 7 -47 33
-75 57 -27 25 -54 45 -59 45 -10 0 -108 80 -119 97 -4 7 -13 13 -18 13 -10 0
-84 55 -120 90 -9 8 -27 22 -39 30 -34 23 -123 91 -141 109 -9 9 -26 23 -39
31 -31 21 -79 60 -119 95 -18 17 -52 44 -75 60 -49 34 -288 225 -296 235 -3 4
-41 36 -85 70 -44 35 -88 72 -98 82 -10 10 -35 29 -55 42 -20 13 -51 37 -68
53 -30 27 -51 46 -204 174 -41 35 -88 77 -105 94 -16 16 -66 59 -110 95 -92
75 -532 510 -591 585 -21 28 -45 54 -51 58 -7 4 -13 12 -13 17 0 4 -17 26 -37
47 -51 53 -80 87 -132 158 -24 33 -49 65 -55 70 -6 6 -24 30 -41 55 -16 25
-32 47 -35 50 -7 7 -86 127 -145 220 -26 41 -56 87 -66 102 -10 15 -19 32 -19
39 0 6 -9 22 -20 36 -11 14 -20 31 -20 38 0 7 -6 18 -14 24 -8 7 -17 23 -21
38 -3 14 -13 32 -20 40 -8 8 -15 25 -15 38 0 12 -6 25 -14 28 -7 3 -16 19 -19
37 -4 17 -14 38 -22 46 -8 9 -15 24 -15 35 0 10 -9 36 -20 56 -11 21 -20 45
-20 53 0 8 -7 24 -15 34 -8 11 -15 29 -15 40 0 12 -7 34 -15 50 -9 16 -20 46
-24 65 -9 34 -15 53 -42 134 -6 17 -17 61 -24 97 -7 36 -17 78 -24 93 -6 16
-11 48 -11 71 0 24 -7 65 -15 92 -16 51 -39 359 -39 504 0 148 24 426 39 470
8 23 15 63 15 89 0 25 6 58 13 72 8 14 17 45 21 70 8 49 31 128 52 174 7 17
16 44 20 60 4 17 13 39 20 50 8 11 14 27 14 37 0 10 9 35 20 55 11 21 20 43
20 49 0 6 7 17 15 24 8 7 15 21 15 32 0 11 9 31 20 45 11 14 20 34 20 43 0 10
7 20 15 24 8 3 15 13 15 23 1 18 66 125 94 154 9 9 16 19 16 22 0 26 201 267
303 362 153 144 333 278 444 330 17 8 34 19 38 25 3 5 14 10 24 10 10 0 24 6
30 14 7 8 25 18 41 21 16 3 34 13 41 21 6 8 22 14 34 14 12 0 28 6 34 14 7 8
28 17 48 21 20 4 46 13 57 21 11 8 29 14 39 14 11 0 33 7 50 15 18 8 50 19 72
24 43 11 99 25 168 41 23 6 80 15 127 21 47 5 108 15 135 20 80 18 350 23 430
9 39 -6 99 -16 135 -20 66 -9 101 -18 245 -64 114 -36 169 -56 180 -67 5 -5
16 -9 24 -9 13 0 159 -66 201 -91 8 -5 29 -16 45 -24 17 -8 44 -24 60 -35 17
-11 39 -24 50 -29 12 -5 27 -16 34 -25 7 -9 17 -16 22 -16 11 0 109 -67 124
-84 6 -6 22 -19 36 -28 58 -37 279 -228 369 -318 94 -94 214 -241 238 -290 6
-14 16 -32 21 -40 5 -8 17 -35 27 -60 25 -60 26 -248 2 -335 -21 -77 -36 -143
-52 -230 -7 -38 -18 -88 -24 -110 -6 -22 -16 -126 -22 -231 -13 -203 0 -437
25 -479 7 -11 15 -36 19 -56 3 -21 13 -42 21 -49 8 -7 15 -18 15 -24 0 -38
157 -187 230 -219 8 -4 22 -11 30 -16 75 -45 121 -55 248 -55 l128 0 76 39
c48 24 100 61 140 99 105 102 111 111 171 233 16 32 35 71 43 86 8 16 14 34
14 42 0 7 10 41 22 76 19 57 21 87 22 274 0 194 -1 215 -23 280 -12 39 -29 82
-37 97 -8 14 -14 35 -14 46 0 11 -7 25 -15 32 -8 6 -17 21 -20 31 -17 54 -112
179 -135 179 -34 -1 -210 -192 -210 -230 0 -9 -5 -21 -12 -28 -23 -23 -57
-289 -58 -457 0 -81 -5 -129 -14 -146 -7 -14 -16 -47 -20 -72 -7 -43 -19 -57
-52 -57 -7 0 -40 26 -72 59 -53 53 -61 66 -76 129 -16 65 -16 77 -1 149 14 74
30 120 61 188 7 17 18 41 24 55 5 14 14 32 19 40 6 8 29 49 53 90 23 41 48 81
55 88 7 7 13 18 13 24 0 6 15 29 33 52 18 23 45 60 60 82 15 23 41 57 57 75
34 40 36 42 74 94 17 22 50 62 75 89 26 27 53 56 61 65 8 9 37 44 63 76 80 99
434 452 537 536 30 24 68 58 86 74 58 55 140 124 180 151 21 15 46 33 54 40
33 31 64 54 73 54 5 0 26 13 47 30 20 16 49 34 64 39 14 6 26 15 26 20 0 5 12
14 28 20 15 6 59 29 97 51 39 22 77 42 85 46 8 4 48 22 88 40 40 19 79 34 87
34 8 0 32 9 52 20 21 11 49 20 63 20 14 0 34 7 44 15 11 8 36 15 55 15 20 1
54 8 76 16 22 9 90 20 150 24 140 10 705 2 765 -12z m6426 -1096 c29 -19 34
-56 34 -236 0 -102 7 -267 16 -368 24 -272 24 -972 1 -1087 -9 -46 -17 -111
-17 -145 -1 -33 -5 -81 -11 -106 -6 -25 -16 -94 -23 -155 -7 -60 -18 -123 -25
-138 -6 -16 -11 -54 -11 -85 -1 -31 -7 -75 -15 -97 -8 -22 -17 -69 -21 -105
-3 -36 -12 -82 -20 -103 -8 -20 -14 -55 -14 -76 0 -21 -9 -67 -20 -101 -11
-34 -20 -78 -20 -97 0 -19 -6 -49 -14 -66 -7 -18 -18 -59 -24 -92 -6 -33 -15
-79 -21 -102 -15 -58 -29 -117 -45 -183 -8 -30 -19 -68 -25 -83 -6 -16 -11
-38 -11 -50 0 -12 -7 -35 -15 -51 -8 -15 -15 -36 -15 -45 0 -15 -28 -116 -52
-186 -5 -16 -14 -50 -19 -75 -6 -25 -16 -57 -24 -72 -8 -14 -15 -37 -15 -51 0
-14 -9 -44 -20 -68 -11 -24 -20 -56 -20 -70 0 -14 -7 -34 -15 -45 -8 -10 -15
-30 -15 -44 0 -14 -9 -43 -20 -65 -11 -22 -19 -52 -20 -66 0 -15 -6 -32 -14
-38 -7 -6 -17 -30 -20 -53 -4 -23 -12 -48 -17 -55 -6 -7 -15 -27 -19 -45 -11
-42 -37 -114 -55 -155 -8 -17 -15 -37 -15 -45 0 -8 -7 -23 -15 -34 -8 -10 -15
-26 -15 -34 0 -8 -9 -33 -20 -55 -11 -22 -19 -47 -20 -56 0 -8 -7 -24 -15 -35
-8 -10 -15 -26 -15 -34 0 -9 -9 -33 -20 -55 -11 -22 -20 -47 -20 -56 0 -10 -6
-24 -14 -32 -8 -8 -19 -32 -25 -55 -7 -23 -15 -44 -20 -46 -5 -3 -12 -21 -15
-40 -4 -19 -13 -39 -21 -46 -8 -7 -15 -23 -15 -35 0 -12 -7 -28 -15 -35 -8 -7
-15 -18 -15 -25 0 -6 -25 -61 -55 -121 -30 -60 -55 -114 -55 -120 0 -6 -7 -17
-15 -24 -8 -7 -15 -19 -15 -27 0 -8 -9 -26 -20 -40 -11 -14 -20 -34 -20 -43 0
-10 -6 -23 -14 -29 -8 -7 -17 -24 -21 -39 -4 -15 -10 -29 -14 -32 -4 -3 -22
-34 -40 -70 -18 -36 -42 -82 -54 -102 -12 -21 -35 -61 -50 -89 -16 -29 -35
-59 -43 -66 -8 -8 -14 -19 -14 -24 0 -5 -9 -22 -19 -37 -39 -56 -116 -178
-123 -194 -4 -10 -12 -18 -17 -18 -5 0 -13 -10 -17 -22 -4 -13 -28 -50 -53
-83 -26 -33 -55 -73 -65 -88 -9 -16 -25 -36 -35 -46 -9 -9 -43 -50 -76 -91
-107 -135 -302 -331 -430 -431 -44 -34 -82 -65 -85 -69 -3 -3 -26 -18 -51 -32
-25 -15 -51 -34 -59 -42 -7 -9 -20 -16 -30 -16 -9 0 -27 -9 -40 -20 -13 -11
-31 -20 -40 -20 -10 0 -23 -7 -30 -15 -7 -8 -21 -15 -32 -15 -10 0 -36 -9 -58
-20 -22 -11 -51 -20 -65 -20 -14 0 -38 -6 -53 -14 -15 -8 -84 -19 -154 -26
-142 -13 -365 0 -427 26 -18 8 -45 14 -60 14 -14 1 -44 9 -66 20 -22 11 -47
19 -55 20 -9 0 -24 6 -35 14 -11 7 -34 17 -52 20 -17 4 -37 14 -44 22 -6 8
-18 14 -26 14 -16 0 -105 51 -190 110 -171 118 -415 378 -459 490 -3 8 -10 22
-15 30 -5 8 -13 26 -19 40 -5 14 -16 38 -25 53 -8 16 -15 37 -15 47 0 10 -9
37 -20 61 -11 24 -20 60 -20 80 0 20 -8 54 -17 75 -24 57 -24 556 1 623 9 24
16 65 16 91 0 26 9 76 20 110 11 34 20 79 20 99 0 20 6 45 14 56 7 11 16 42
19 68 4 27 14 58 22 70 8 12 15 34 15 50 0 16 5 38 11 50 7 11 18 42 25 67 16
57 33 106 50 145 7 17 22 55 34 85 12 30 28 69 35 85 18 40 54 123 70 160 7
17 22 50 33 75 11 25 23 55 26 67 4 11 13 27 21 33 8 7 15 23 15 37 0 13 7 26
15 29 8 4 15 13 15 21 0 12 10 33 51 113 5 8 22 42 39 75 17 33 49 92 71 130
22 39 45 81 52 95 6 14 15 27 19 30 4 3 12 17 18 30 6 14 22 43 35 65 14 22
29 50 34 62 6 12 23 41 38 65 15 24 33 54 40 68 14 27 22 41 71 112 17 26 32
50 32 53 0 6 41 66 50 75 3 3 19 27 35 53 84 138 131 209 150 228 8 9 15 19
15 22 0 4 16 30 35 57 19 28 51 74 71 103 20 28 41 57 48 62 6 6 25 30 41 55
39 58 46 68 68 88 9 9 17 20 17 25 0 9 37 63 62 88 9 10 25 30 34 46 20 31 85
115 96 123 8 6 58 70 78 100 8 12 38 48 67 79 29 31 53 59 53 64 0 7 123 148
185 213 17 17 64 68 105 114 131 146 174 192 230 250 30 31 98 103 150 160
208 229 369 392 481 490 70 61 137 122 215 198 19 18 68 59 110 92 41 33 93
77 117 99 23 22 60 53 82 70 49 38 72 58 155 132 36 32 83 70 105 85 22 14 48
34 57 44 10 10 43 36 75 57 32 20 64 43 71 50 7 7 17 13 22 13 4 0 32 16 61
35 30 19 59 35 65 35 6 0 17 7 24 15 7 8 20 15 29 15 9 1 34 9 56 20 40 20
149 27 171 12z"/>
<path d="M7180 10933 c-46 -3 -69 -9 -77 -20 -10 -13 -13 -152 -13 -617 0
-331 4 -606 8 -613 9 -15 287 -22 301 -8 6 6 11 112 13 242 2 127 6 235 10
239 17 16 55 -16 82 -70 16 -31 33 -59 38 -62 5 -3 14 -16 19 -27 14 -32 73
-125 168 -267 l37 -55 169 -5 c94 -3 175 -1 182 3 13 9 2 49 -20 72 -6 7 -18
21 -25 31 -50 76 -79 121 -91 143 -8 14 -27 42 -42 62 -16 20 -29 42 -29 47 0
6 -6 17 -12 24 -34 36 -58 80 -58 105 0 22 12 37 53 69 89 69 121 128 143 265
8 48 -21 171 -51 217 -73 113 -189 189 -315 206 -25 4 -67 11 -95 16 -48 8
-257 10 -395 3z m481 -342 c35 -35 39 -44 39 -90 0 -44 -5 -56 -33 -87 l-32
-35 -98 -2 c-127 -3 -130 0 -121 132 4 53 11 102 17 109 6 8 39 12 99 12 l90
0 39 -39z"/>
<path d="M8304 10933 c-50 -3 -63 -8 -73 -26 -9 -16 -11 -178 -9 -625 3 -504
5 -604 17 -611 15 -10 290 -6 300 4 3 4 8 84 11 178 l5 172 80 7 c44 4 102 12
128 18 26 5 61 10 77 10 66 0 201 100 265 197 43 63 75 161 75 228 0 67 -32
165 -75 229 -78 118 -188 185 -336 205 -92 13 -368 21 -465 14z m464 -323 c61
-26 92 -71 92 -131 -1 -85 -77 -139 -198 -139 -113 0 -112 -2 -112 145 0 146
-1 144 103 145 47 0 83 -6 115 -20z"/>
<path d="M9150 9380 c-157 -37 -235 -72 -326 -144 -69 -55 -171 -185 -197
-251 -42 -105 -49 -152 -44 -295 3 -101 8 -143 20 -165 9 -16 17 -40 17 -52 0
-12 4 -24 9 -27 5 -3 23 -30 39 -59 25 -42 84 -109 165 -183 13 -11 31 -21
119 -66 98 -49 123 -56 221 -68 110 -13 251 -1 322 27 133 52 225 116 225 157
0 13 -9 35 -20 49 -11 14 -20 30 -20 36 0 5 -6 14 -13 18 -7 4 -32 32 -56 61
-25 31 -51 52 -63 52 -11 0 -47 -16 -79 -35 -33 -19 -63 -35 -67 -35 -4 0 -20
-7 -37 -16 -67 -35 -163 -23 -270 35 -184 99 -239 340 -115 505 39 51 98 96
172 129 46 22 204 24 233 3 11 -7 31 -17 43 -21 13 -4 43 -20 67 -36 24 -16
48 -29 54 -29 17 0 64 51 105 113 20 31 43 61 51 67 16 13 20 58 7 75 -6 10
-38 32 -87 62 -26 16 -35 20 -65 33 -14 5 -32 14 -40 19 -15 9 -69 24 -145 41
-49 11 -177 11 -225 0z"/>
<path d="M7103 9338 c-4 -7 -9 -290 -11 -629 -2 -554 -1 -617 13 -629 11 -9
57 -15 142 -17 185 -5 172 -23 175 245 3 213 3 217 24 220 15 2 27 -7 42 -30
11 -18 43 -64 71 -103 28 -38 67 -92 86 -120 127 -181 128 -182 177 -123 30
38 46 59 80 113 14 21 62 91 121 177 22 31 50 64 63 73 23 15 25 14 34 -10 6
-15 10 -116 10 -225 0 -138 3 -201 11 -206 7 -4 73 -9 149 -11 113 -3 139 -2
149 11 17 20 17 1242 0 1262 -18 22 -80 16 -110 -9 -32 -28 -99 -111 -99 -124
0 -5 -16 -24 -35 -43 -19 -19 -35 -40 -35 -47 0 -6 -6 -18 -13 -25 -7 -7 -18
-20 -23 -29 -5 -9 -21 -32 -36 -50 -70 -86 -124 -160 -220 -300 -22 -31 -51
-67 -65 -80 l-25 -24 -39 45 c-22 25 -55 68 -75 97 -19 29 -40 58 -47 65 -7 7
-29 38 -49 68 -20 30 -45 64 -55 75 -10 11 -31 40 -48 65 -16 25 -34 50 -40
56 -5 6 -41 54 -80 108 -118 166 -119 166 -180 166 -32 0 -57 -5 -62 -12z"/>
<path d="M1990 6214 c-25 -7 -67 -13 -95 -13 -27 -1 -62 -7 -77 -15 -14 -8
-46 -17 -70 -21 -24 -4 -53 -13 -65 -21 -12 -8 -32 -14 -44 -14 -12 0 -40 -9
-63 -19 -71 -33 -210 -102 -231 -114 -42 -24 -100 -62 -105 -68 -3 -4 -14 -9
-25 -13 -11 -3 -36 -20 -54 -37 -19 -17 -59 -49 -90 -72 -70 -52 -191 -174
-244 -247 -22 -30 -45 -60 -51 -65 -16 -14 -56 -73 -56 -81 0 -4 -7 -15 -16
-25 -35 -38 -164 -298 -164 -331 0 -7 -7 -22 -15 -32 -8 -11 -15 -31 -15 -45
0 -14 -7 -39 -16 -56 -8 -16 -18 -52 -21 -80 -2 -27 -11 -70 -18 -95 -27 -92
-25 -526 4 -635 5 -22 14 -62 20 -90 13 -68 53 -198 80 -260 32 -74 108 -220
141 -270 22 -33 46 -74 54 -90 8 -17 25 -42 38 -56 12 -14 45 -51 72 -83 62
-73 139 -150 212 -212 32 -27 71 -61 87 -76 17 -15 43 -32 59 -39 15 -6 28
-15 28 -19 0 -4 24 -19 53 -35 28 -15 70 -38 92 -51 22 -13 47 -26 55 -30 8
-3 33 -14 55 -24 237 -107 471 -159 715 -159 185 0 398 36 550 94 116 43 197
78 230 96 8 5 26 14 40 19 14 6 32 14 40 20 14 9 99 61 138 85 48 29 78 50 87
60 6 6 37 31 70 55 106 77 270 254 355 385 32 49 140 237 140 244 0 4 9 24 20
46 11 22 20 46 20 55 0 8 7 24 15 34 8 11 15 36 15 55 1 20 7 54 15 76 9 25
15 79 15 142 0 139 2 138 -203 130 -178 -7 -263 -25 -373 -79 -86 -41 -170
-117 -214 -193 -13 -22 -30 -44 -37 -48 -7 -4 -13 -13 -13 -19 0 -6 -26 -49
-57 -96 -70 -104 -185 -221 -259 -265 -123 -71 -222 -117 -254 -117 -12 0 -33
-6 -48 -14 -72 -37 -483 -37 -554 0 -15 8 -36 14 -46 14 -27 0 -120 41 -228
99 -159 86 -319 258 -406 435 -22 45 -44 88 -48 97 -5 9 -12 34 -16 55 -4 22
-14 53 -22 69 -24 45 -24 494 0 551 8 21 20 62 26 89 30 155 132 327 262 446
41 38 80 69 87 69 6 0 18 6 26 14 21 21 167 96 187 96 10 0 23 7 30 15 7 8 28
17 49 21 20 4 45 11 56 17 69 36 308 64 418 49 105 -14 196 -34 224 -50 12 -6
30 -12 40 -12 10 0 32 -9 48 -20 17 -11 35 -20 41 -20 6 0 33 -12 58 -27 26
-16 55 -32 65 -38 86 -50 300 -248 348 -322 17 -27 52 -70 82 -100 15 -15 64
-11 161 13 30 8 76 14 102 14 27 0 63 6 81 14 18 7 59 17 92 21 33 4 72 13 87
21 15 8 38 14 51 14 45 0 62 23 59 81 -1 29 -9 66 -17 82 -8 17 -15 34 -15 39
0 11 -42 97 -73 150 -102 174 -292 373 -477 501 -139 96 -232 149 -335 192
-16 7 -51 22 -76 34 -25 12 -55 21 -66 21 -10 0 -28 7 -39 15 -10 8 -29 15
-42 15 -12 0 -48 9 -79 20 -32 11 -75 20 -98 20 -22 0 -65 7 -95 15 -71 19
-403 19 -470 -1z"/>
</g>
</svg>
