<?xml version="1.0" standalone="no"?>
<!DOCTYPE svg PUBLIC "-//W3C//DTD SVG 20010904//EN"
 "http://www.w3.org/TR/2001/REC-SVG-20010904/DTD/svg10.dtd">
<svg version="1.0" xmlns="http://www.w3.org/2000/svg"
 width="2000.000000pt" height="2000.000000pt" viewBox="0 0 2000.000000 2000.000000"
 preserveAspectRatio="xMidYMid meet">

<g transform="translate(0.000000,2000.000000) scale(0.100000,-0.100000)"
fill="#000000" stroke="none">
<path d="M14335 17440 c-114 -5 -186 -13 -220 -24 -27 -9 -122 -23 -210 -30
-106 -9 -179 -21 -215 -34 -30 -11 -91 -23 -134 -27 -44 -4 -98 -16 -121 -26
-23 -10 -78 -24 -121 -30 -44 -7 -95 -20 -115 -30 -19 -9 -63 -22 -97 -29 -34
-6 -86 -22 -114 -35 -29 -14 -65 -25 -79 -25 -14 0 -47 -11 -73 -25 -26 -14
-66 -28 -89 -31 -23 -4 -58 -16 -77 -29 -19 -12 -57 -28 -84 -34 -27 -7 -60
-21 -74 -32 -14 -10 -43 -22 -64 -26 -22 -3 -52 -16 -67 -28 -14 -13 -44 -28
-66 -34 -22 -6 -46 -19 -52 -30 -7 -11 -29 -23 -49 -27 -20 -4 -49 -20 -65
-35 -16 -16 -36 -29 -43 -29 -8 0 -20 -7 -27 -17 -8 -9 -30 -23 -49 -32 -35
-16 -65 -37 -134 -93 -19 -16 -38 -28 -44 -28 -6 0 -28 -15 -51 -32 -22 -18
-58 -46 -78 -61 -21 -15 -55 -41 -77 -57 -21 -17 -43 -30 -48 -30 -6 0 -38
-24 -71 -54 -34 -29 -75 -61 -92 -70 -45 -25 -94 -62 -153 -114 -30 -26 -61
-51 -71 -57 -9 -5 -33 -22 -53 -37 -19 -16 -39 -28 -44 -28 -5 0 -21 -12 -36
-27 -15 -16 -39 -38 -55 -50 -15 -13 -46 -38 -68 -56 -22 -19 -55 -42 -72 -51
-18 -9 -33 -21 -33 -26 0 -5 -8 -11 -19 -15 -10 -3 -36 -22 -57 -41 -22 -19
-48 -44 -59 -54 -11 -9 -31 -23 -45 -30 -31 -16 -106 -73 -200 -152 -13 -11
-39 -27 -57 -36 -18 -9 -33 -19 -33 -23 0 -4 -15 -16 -32 -28 -18 -11 -53 -36
-78 -56 -25 -19 -63 -44 -85 -56 -22 -12 -46 -30 -53 -40 -7 -11 -19 -19 -25
-19 -7 0 -30 -14 -51 -30 -22 -17 -45 -30 -52 -30 -7 0 -27 -12 -45 -27 -19
-17 -59 -35 -98 -44 -74 -19 -118 -10 -172 35 -16 14 -39 28 -51 32 -12 4 -52
32 -90 63 -37 31 -85 70 -108 86 -45 33 -171 135 -210 171 -14 12 -38 35 -55
51 -16 15 -39 35 -51 43 -77 55 -180 139 -253 210 -65 62 -145 132 -162 141
-24 12 -198 154 -252 205 -12 12 -40 31 -62 43 -56 30 -106 68 -122 91 -8 11
-22 20 -32 20 -10 0 -35 14 -56 30 -21 17 -41 30 -46 30 -5 0 -22 14 -39 30
-17 17 -39 30 -50 30 -10 0 -31 10 -47 23 -15 13 -46 33 -68 44 -245 126 -341
173 -355 173 -9 0 -31 11 -48 24 -18 13 -53 26 -77 29 -25 4 -58 16 -73 27
-15 11 -54 25 -87 31 -33 5 -73 19 -88 30 -16 12 -57 25 -95 30 -37 5 -87 20
-112 33 -28 14 -72 25 -116 29 -41 4 -94 17 -125 31 -37 16 -81 26 -141 30
-52 4 -109 15 -140 27 -38 15 -92 24 -193 30 -77 6 -176 17 -220 25 -177 33
-740 37 -843 5 -29 -9 -103 -17 -332 -36 -31 -2 -76 -13 -100 -24 -25 -10 -89
-24 -143 -30 -65 -6 -109 -16 -130 -30 -18 -11 -61 -23 -97 -26 -40 -5 -81
-17 -108 -32 -23 -13 -66 -27 -95 -30 -28 -3 -68 -17 -87 -29 -19 -13 -55 -26
-80 -30 -25 -3 -61 -17 -80 -30 -19 -12 -54 -27 -77 -32 -23 -5 -54 -19 -69
-31 -15 -11 -34 -21 -44 -21 -9 0 -84 -34 -166 -77 -82 -42 -170 -87 -195 -99
-25 -13 -51 -30 -58 -38 -7 -8 -27 -18 -44 -22 -18 -3 -46 -19 -64 -34 -17
-16 -46 -31 -63 -35 -17 -4 -34 -13 -37 -21 -3 -8 -20 -22 -37 -31 -17 -8 -40
-23 -51 -33 -11 -10 -31 -21 -45 -25 -22 -7 -45 -23 -122 -89 -9 -8 -32 -23
-50 -32 -33 -17 -56 -35 -153 -119 -27 -24 -90 -76 -140 -116 -110 -88 -119
-97 -253 -230 -105 -105 -193 -201 -222 -243 -8 -11 -62 -77 -120 -146 -58
-69 -113 -142 -122 -162 -10 -21 -22 -38 -28 -38 -5 0 -17 -15 -26 -32 -9 -18
-25 -39 -35 -46 -9 -6 -20 -26 -24 -43 -4 -17 -16 -40 -27 -51 -19 -19 -38
-49 -93 -150 -14 -27 -29 -48 -34 -48 -5 0 -17 -22 -26 -49 -9 -27 -24 -56
-35 -66 -10 -9 -21 -29 -25 -43 -3 -15 -14 -38 -23 -52 -29 -45 -89 -165 -96
-195 -4 -17 -16 -39 -27 -51 -10 -11 -23 -42 -28 -68 -5 -26 -18 -56 -29 -66
-12 -11 -24 -42 -31 -81 -6 -34 -19 -72 -30 -83 -10 -12 -23 -49 -29 -84 -6
-35 -20 -78 -31 -96 -12 -18 -25 -63 -30 -100 -5 -36 -19 -81 -30 -99 -13 -21
-24 -65 -30 -118 -6 -46 -19 -102 -30 -124 -13 -25 -24 -78 -30 -140 -6 -55
-19 -123 -30 -151 -12 -30 -22 -90 -26 -150 -4 -54 -17 -153 -31 -219 -32
-166 -48 -659 -34 -1115 10 -337 13 -369 35 -460 8 -30 19 -109 25 -175 7 -70
21 -149 35 -190 12 -38 26 -108 29 -154 4 -52 14 -97 27 -122 11 -22 25 -79
30 -126 7 -57 18 -96 30 -113 12 -15 24 -56 30 -95 5 -38 19 -85 30 -104 11
-19 25 -62 30 -96 5 -33 19 -73 30 -88 11 -15 24 -49 28 -75 4 -26 19 -67 33
-92 14 -25 29 -62 33 -84 3 -21 15 -51 26 -66 11 -15 25 -46 30 -70 5 -24 18
-55 28 -69 10 -14 22 -37 26 -51 4 -14 21 -49 36 -79 16 -30 29 -59 29 -65 0
-6 11 -27 23 -46 13 -19 27 -47 30 -61 4 -14 15 -36 26 -48 11 -13 25 -39 32
-60 7 -20 22 -49 35 -64 13 -16 24 -37 24 -46 0 -10 13 -35 29 -55 16 -20 32
-51 35 -69 3 -19 17 -43 30 -54 13 -11 26 -37 30 -56 4 -20 15 -42 26 -50 10
-7 24 -26 31 -42 8 -17 24 -44 36 -61 13 -17 23 -36 23 -42 0 -6 13 -27 30
-45 16 -19 30 -39 30 -44 0 -6 10 -23 22 -39 13 -15 32 -42 43 -60 19 -31 110
-163 161 -234 14 -19 33 -44 44 -55 10 -11 21 -31 25 -45 4 -13 21 -38 37 -55
16 -16 40 -41 53 -55 14 -14 25 -30 25 -35 0 -6 16 -30 35 -54 19 -24 35 -48
35 -53 0 -6 12 -22 28 -37 36 -36 119 -133 140 -162 8 -13 28 -40 44 -59 15
-19 38 -48 51 -63 12 -15 38 -45 57 -66 19 -21 58 -62 85 -92 50 -53 161 -183
213 -248 38 -47 178 -192 405 -418 105 -106 200 -200 209 -210 10 -10 22 -22
28 -28 6 -5 34 -33 63 -60 29 -28 122 -112 208 -187 86 -75 181 -160 212 -189
146 -141 204 -192 367 -325 59 -47 186 -158 252 -220 12 -11 33 -28 48 -39
108 -79 183 -142 250 -209 14 -14 31 -26 37 -26 6 0 17 -7 24 -16 8 -9 31 -28
52 -41 21 -13 46 -31 56 -41 11 -9 36 -30 56 -47 20 -16 52 -43 70 -60 18 -16
52 -43 76 -60 54 -38 109 -83 183 -148 32 -29 69 -58 82 -65 13 -7 24 -17 24
-22 0 -5 12 -16 28 -24 15 -8 36 -23 47 -33 11 -10 36 -30 56 -45 20 -15 55
-44 78 -65 42 -38 73 -63 167 -131 29 -20 80 -62 114 -92 104 -92 151 -130
245 -200 25 -19 73 -61 107 -92 33 -32 64 -58 68 -58 4 0 14 -7 21 -16 8 -9
32 -28 54 -42 38 -24 129 -97 188 -151 15 -14 44 -39 63 -56 20 -16 47 -42 62
-56 15 -14 39 -32 53 -40 32 -17 122 -95 295 -256 14 -13 33 -27 44 -33 19
-10 154 -123 195 -162 110 -106 209 -198 232 -215 196 -146 258 -194 297 -228
40 -35 115 -91 210 -154 59 -40 184 -130 276 -199 93 -70 220 -164 282 -209
62 -46 167 -124 233 -174 132 -100 158 -114 288 -155 49 -15 104 -38 124 -51
34 -23 41 -24 162 -20 246 9 297 25 456 146 152 116 393 306 520 411 77 64
190 155 250 202 61 47 119 94 130 105 26 24 212 172 249 198 16 11 48 36 72
55 67 54 97 76 121 89 13 6 34 21 48 34 90 80 175 147 185 147 8 0 67 44 115
85 59 51 94 75 129 90 19 8 40 24 46 35 6 11 17 20 24 20 7 0 23 12 37 26 13
14 38 32 56 39 17 7 40 21 50 29 10 9 41 34 68 56 28 22 58 46 67 54 9 8 32
23 50 32 18 9 62 41 98 70 36 29 79 65 96 78 17 14 44 30 59 36 16 6 38 20 49
30 56 52 80 72 114 90 47 26 91 58 156 113 28 24 70 54 93 65 22 12 43 25 45
29 5 13 139 114 183 139 17 9 53 36 80 59 71 61 158 125 169 125 7 0 31 19
111 88 11 10 47 35 80 57 33 22 90 65 127 95 87 72 153 120 165 120 5 0 19 10
30 22 12 13 36 35 55 50 18 15 53 43 76 62 24 20 48 36 52 36 10 0 106 77 190
153 17 15 34 27 39 27 13 0 77 49 181 139 77 66 122 101 131 101 8 0 22 11
105 85 34 30 70 61 131 113 18 15 55 43 84 62 28 19 68 50 88 68 20 18 47 44
61 56 39 36 163 137 214 176 25 19 74 61 109 92 133 123 240 218 297 263 84
68 110 90 204 180 52 50 161 153 242 230 181 171 547 536 709 708 103 109 146
155 262 279 9 10 23 28 32 42 29 43 98 130 137 173 22 22 53 57 69 77 17 21
39 47 51 59 12 12 27 33 34 47 13 26 19 34 121 158 32 41 59 80 59 87 0 7 15
31 33 54 60 76 87 114 87 127 0 7 12 27 27 44 27 32 34 44 85 138 15 28 32 53
38 57 6 4 22 27 36 53 14 26 36 65 50 87 13 22 35 63 49 92 14 28 32 57 40 63
9 7 20 32 26 56 6 23 22 53 35 65 13 12 24 31 24 41 0 24 26 75 40 80 6 2 16
24 21 48 6 25 19 54 29 65 10 11 23 40 30 65 6 25 22 63 35 85 13 22 26 58 30
79 4 20 16 46 27 56 11 10 24 40 29 67 5 26 18 60 29 75 10 14 25 48 31 75 7
26 23 68 36 92 13 24 23 54 23 66 0 12 11 44 25 70 13 27 30 74 36 105 6 30
19 69 29 85 10 17 21 53 25 80 4 28 18 69 30 92 14 25 26 70 30 108 4 36 16
82 27 103 10 20 25 80 33 133 7 53 22 114 33 135 13 26 23 77 29 155 7 74 17
128 29 150 13 24 21 78 30 195 8 101 20 186 33 230 19 62 22 106 29 453 4 210
4 546 0 745 -7 335 -10 368 -32 461 -14 57 -28 149 -32 215 -4 85 -12 129 -29
170 -14 34 -25 88 -29 143 -5 63 -14 101 -30 131 -14 27 -26 71 -30 116 -5 44
-16 88 -30 115 -13 24 -27 69 -31 102 -4 32 -17 76 -30 98 -13 22 -26 60 -30
85 -4 25 -15 56 -25 70 -10 14 -25 52 -33 84 -9 32 -22 65 -30 74 -8 10 -20
37 -27 62 -7 25 -19 52 -27 62 -8 9 -21 38 -29 64 -8 26 -23 57 -33 68 -10 12
-22 37 -26 56 -4 19 -18 48 -31 63 -13 15 -26 43 -30 61 -3 19 -16 44 -29 56
-13 13 -27 37 -31 54 -3 17 -16 42 -29 56 -13 14 -28 44 -34 66 -6 23 -17 44
-24 47 -13 5 -97 140 -97 156 0 6 -9 15 -19 21 -11 5 -26 21 -33 33 -28 49
-78 123 -98 142 -11 12 -20 25 -20 31 0 6 -12 23 -27 38 -52 50 -153 173 -153
185 0 4 -27 36 -59 72 -54 58 -70 75 -105 108 -6 6 -42 42 -81 80 -111 110
-199 191 -206 191 -4 0 -27 16 -51 35 -23 20 -58 48 -77 63 -19 15 -46 38 -60
52 -36 34 -79 65 -126 91 -22 12 -49 30 -60 41 -45 42 -93 78 -106 78 -13 0
-28 8 -123 72 -23 15 -61 37 -86 49 -25 11 -48 27 -53 34 -4 8 -23 17 -43 21
-19 4 -47 17 -62 29 -15 12 -45 28 -67 35 -22 7 -50 21 -63 31 -13 10 -47 25
-76 33 -30 9 -59 22 -65 30 -7 8 -34 20 -61 26 -28 7 -60 20 -73 30 -12 10
-43 23 -67 30 -25 6 -58 20 -75 30 -16 10 -55 23 -86 28 -31 6 -71 19 -90 30
-19 11 -70 25 -113 31 -44 6 -93 20 -110 30 -22 13 -60 21 -131 26 -55 3 -147
17 -204 31 -99 24 -118 25 -475 28 -204 2 -447 0 -541 -4z m655 -1094 c264
-12 311 -16 350 -34 31 -13 81 -22 150 -27 78 -5 118 -13 156 -30 29 -14 81
-27 120 -31 44 -4 84 -15 110 -30 22 -12 64 -26 93 -30 32 -4 64 -16 79 -29
15 -12 45 -25 67 -29 22 -4 57 -18 77 -32 21 -13 41 -24 45 -24 13 0 166 -80
183 -95 9 -8 31 -21 51 -29 19 -8 43 -24 53 -35 11 -12 24 -21 31 -21 7 0 20
-9 31 -21 10 -12 36 -30 57 -40 21 -11 46 -28 57 -37 10 -9 37 -33 60 -52 49
-41 340 -331 390 -388 65 -75 150 -186 150 -198 0 -4 15 -24 33 -44 32 -38 61
-77 100 -139 12 -19 34 -53 50 -75 15 -23 36 -60 47 -83 11 -23 25 -45 31 -49
6 -4 22 -30 35 -59 12 -29 28 -56 33 -60 6 -3 16 -25 22 -48 7 -23 21 -52 32
-64 10 -11 23 -41 28 -65 6 -23 21 -59 34 -78 13 -19 26 -55 30 -80 4 -25 16
-54 26 -66 10 -11 24 -47 30 -80 6 -32 21 -77 33 -99 13 -22 26 -67 30 -99 4
-33 16 -75 27 -93 11 -18 25 -66 31 -106 5 -39 18 -92 29 -117 11 -25 25 -85
30 -135 5 -49 18 -111 29 -136 11 -25 24 -93 30 -155 6 -60 19 -144 30 -186
22 -85 37 -312 46 -713 8 -309 -17 -795 -46 -900 -10 -38 -24 -113 -29 -166
-6 -53 -20 -116 -30 -140 -11 -24 -24 -78 -29 -120 -5 -41 -19 -93 -29 -115
-11 -21 -25 -67 -31 -102 -6 -35 -20 -78 -32 -96 -11 -19 -23 -55 -27 -82 -3
-26 -19 -72 -35 -102 -15 -30 -28 -67 -28 -82 0 -16 -11 -41 -24 -57 -13 -15
-27 -48 -31 -73 -4 -25 -17 -61 -30 -80 -13 -19 -28 -55 -34 -78 -5 -24 -18
-52 -29 -62 -10 -10 -24 -38 -30 -62 -6 -24 -20 -53 -31 -63 -12 -10 -23 -33
-27 -51 -3 -18 -14 -40 -25 -50 -10 -9 -23 -33 -30 -53 -6 -20 -22 -50 -35
-68 -13 -17 -24 -36 -24 -42 0 -5 -11 -22 -23 -38 -13 -15 -29 -43 -35 -62 -7
-18 -23 -44 -37 -57 -14 -13 -25 -32 -25 -42 0 -11 -13 -36 -30 -57 -16 -21
-30 -43 -30 -49 0 -6 -14 -29 -30 -50 -17 -22 -30 -45 -30 -51 0 -7 -10 -20
-21 -31 -12 -10 -28 -35 -36 -54 -15 -34 -25 -49 -90 -131 -18 -23 -33 -47
-33 -54 0 -12 -25 -46 -90 -125 -42 -51 -80 -103 -80 -110 0 -8 -45 -67 -97
-127 -48 -55 -73 -87 -98 -123 -14 -19 -35 -51 -49 -70 -13 -19 -47 -60 -75
-90 -28 -30 -60 -66 -71 -80 -11 -14 -33 -41 -48 -60 -16 -19 -35 -45 -44 -58
-19 -28 -144 -165 -263 -288 -49 -51 -128 -134 -175 -185 -82 -89 -278 -285
-530 -529 -110 -107 -196 -188 -375 -357 -38 -36 -110 -98 -160 -138 -49 -40
-112 -94 -140 -119 -144 -134 -311 -276 -324 -276 -8 0 -44 -30 -101 -83 -52
-49 -156 -134 -185 -152 -16 -10 -39 -26 -50 -36 -58 -52 -241 -199 -285 -229
-47 -32 -80 -59 -138 -110 -12 -11 -37 -27 -55 -36 -17 -9 -42 -26 -54 -38
-11 -12 -40 -34 -62 -51 -23 -16 -60 -45 -82 -62 -23 -18 -45 -33 -49 -33 -5
0 -40 -26 -79 -58 -127 -103 -153 -122 -165 -122 -7 0 -23 -11 -36 -25 -13
-14 -29 -25 -37 -25 -7 0 -18 -9 -25 -21 -7 -11 -29 -29 -48 -40 -42 -24 -96
-60 -130 -88 -46 -38 -95 -71 -130 -87 -19 -9 -44 -25 -55 -36 -40 -39 -107
-88 -120 -88 -11 0 -71 -43 -115 -84 -8 -7 -31 -21 -50 -31 -19 -10 -47 -27
-62 -39 -65 -51 -90 -68 -178 -121 -18 -11 -47 -32 -64 -46 -17 -14 -45 -31
-63 -38 -17 -7 -39 -21 -49 -32 -9 -10 -23 -19 -29 -19 -7 0 -24 -11 -37 -25
-14 -14 -40 -30 -58 -36 -17 -7 -42 -20 -53 -31 -33 -30 -87 -65 -132 -87 -22
-10 -49 -28 -59 -40 -11 -11 -25 -21 -31 -21 -7 0 -19 -7 -26 -17 -8 -9 -34
-25 -59 -36 -25 -11 -50 -26 -55 -34 -12 -16 -72 -54 -132 -83 -23 -11 -46
-27 -50 -34 -4 -8 -29 -24 -55 -36 -27 -12 -48 -26 -48 -30 0 -4 -13 -13 -29
-20 -16 -6 -37 -20 -46 -31 -10 -10 -34 -23 -54 -30 -20 -6 -45 -20 -56 -30
-31 -30 -86 -67 -132 -89 -23 -11 -45 -25 -48 -29 -8 -13 -123 -91 -134 -91
-5 0 -27 -15 -50 -33 -82 -65 -97 -75 -131 -90 -19 -8 -44 -24 -54 -36 -11
-11 -25 -21 -31 -21 -7 0 -19 -7 -26 -17 -8 -9 -34 -25 -59 -36 -25 -11 -50
-28 -57 -37 -7 -10 -33 -23 -57 -29 -25 -6 -49 -17 -53 -25 -11 -17 -47 -36
-71 -36 -10 0 -31 -11 -46 -25 -14 -13 -43 -27 -64 -30 -20 -3 -59 -16 -87
-28 -40 -17 -74 -22 -172 -25 -112 -3 -126 -1 -175 22 -29 13 -73 27 -98 31
-25 4 -56 17 -70 30 -14 12 -41 25 -61 29 -20 3 -46 17 -59 31 -12 13 -35 27
-51 30 -15 4 -33 13 -40 21 -7 9 -30 24 -51 35 -22 11 -41 26 -44 34 -3 7 -19
18 -35 24 -30 10 -54 27 -127 86 -20 17 -44 35 -53 40 -9 6 -42 28 -74 50 -32
22 -73 50 -91 63 -19 12 -34 27 -34 32 0 6 -12 16 -28 22 -15 7 -42 25 -60 40
-18 15 -38 28 -45 28 -6 0 -23 11 -37 25 -43 42 -97 85 -108 85 -6 0 -28 15
-51 33 -22 17 -59 46 -81 62 -23 17 -50 38 -60 47 -10 9 -31 25 -47 35 -38 24
-95 68 -171 131 -35 28 -67 52 -71 52 -9 0 -67 42 -116 84 -71 60 -117 96
-125 96 -8 0 -69 45 -115 84 -58 51 -117 96 -125 96 -9 0 -63 43 -145 115 -27
24 -81 64 -118 90 -38 26 -77 54 -87 63 -10 10 -35 31 -56 47 -21 17 -50 42
-66 57 -16 15 -37 30 -48 33 -19 6 -75 48 -136 102 -69 61 -175 143 -185 143
-4 0 -24 15 -43 32 -19 18 -49 44 -65 58 -17 14 -45 39 -64 55 -19 17 -57 46
-85 65 -29 19 -66 47 -84 63 -18 15 -46 39 -63 53 -16 13 -45 38 -63 54 -18
17 -37 30 -41 30 -12 0 -84 58 -193 154 -51 44 -90 76 -144 116 -51 39 -188
151 -219 182 -20 19 -66 55 -146 113 -22 17 -55 44 -73 60 -66 61 -152 135
-200 172 -68 53 -185 151 -221 185 -149 140 -160 150 -280 249 -110 91 -232
208 -534 510 -361 360 -389 390 -489 514 -39 49 -96 116 -125 148 -47 52 -85
95 -135 152 -32 38 -102 133 -102 140 0 4 -14 21 -30 38 -55 57 -67 72 -84
102 -21 38 -59 93 -86 125 -35 42 -69 93 -89 135 -10 22 -28 46 -40 53 -12 7
-21 18 -21 26 0 7 -13 30 -30 51 -16 21 -30 44 -30 51 0 8 -9 23 -21 35 -19
19 -36 46 -90 144 -12 22 -27 43 -35 48 -7 4 -20 30 -29 57 -9 27 -23 54 -31
58 -8 5 -22 28 -30 52 -8 24 -26 56 -40 72 -13 16 -24 40 -24 53 0 13 -11 36
-25 51 -13 14 -27 43 -31 63 -4 20 -17 47 -29 61 -13 14 -26 41 -30 60 -4 19
-17 51 -30 70 -13 19 -26 51 -30 70 -4 19 -17 53 -30 75 -13 22 -27 58 -31 80
-4 22 -17 56 -30 75 -12 19 -26 57 -30 84 -4 27 -17 64 -29 82 -13 18 -26 55
-30 81 -4 26 -16 65 -27 86 -11 22 -24 66 -29 99 -5 33 -18 77 -29 97 -10 21
-24 74 -30 119 -6 45 -19 101 -30 124 -11 27 -23 86 -28 153 -6 61 -19 138
-31 173 -18 51 -23 103 -31 280 -5 119 -14 258 -20 307 -13 117 -13 373 0 450
6 33 15 160 20 283 8 188 13 230 30 269 12 28 24 87 30 155 7 70 18 127 31
154 11 24 23 75 28 112 5 38 18 86 29 108 11 22 25 66 31 99 6 32 18 69 26 82
9 12 23 51 31 85 9 35 25 74 35 87 11 13 19 33 19 45 0 12 16 53 35 92 19 38
35 79 35 91 0 12 11 34 24 48 14 14 27 43 31 65 3 21 17 48 30 60 13 12 27 40
30 61 5 26 15 45 30 55 15 10 26 29 30 54 4 21 16 46 27 56 11 10 26 34 34 52
7 19 25 47 39 64 14 16 25 34 25 40 0 6 10 21 23 33 12 12 31 36 42 55 48 80
64 103 108 152 25 29 85 102 133 162 105 131 319 347 404 406 37 26 46 33 104
84 98 85 189 152 216 161 11 4 20 10 20 15 0 5 18 19 40 30 22 11 40 24 40 29
0 5 19 16 42 26 23 9 54 27 70 40 15 13 41 26 57 30 16 3 37 15 46 25 10 11
39 26 65 35 27 9 54 23 60 30 7 8 31 20 54 26 22 6 51 20 63 31 11 11 40 24
63 29 24 5 54 18 67 29 13 10 50 24 81 31 30 6 67 20 81 30 14 10 50 23 78 29
29 5 70 18 91 29 21 11 67 25 102 31 35 6 80 20 99 29 20 10 75 23 123 29 47
6 104 18 125 27 22 10 92 21 168 27 72 5 173 19 225 31 86 20 123 22 400 22
266 0 312 -2 364 -18 32 -10 114 -24 181 -32 68 -7 137 -21 154 -29 17 -9 67
-23 112 -31 44 -7 91 -21 105 -30 13 -8 48 -20 76 -25 29 -6 73 -21 98 -34 25
-13 61 -26 81 -30 21 -4 48 -15 62 -26 13 -11 43 -24 66 -29 23 -5 60 -21 81
-35 22 -14 48 -26 58 -26 10 0 38 -13 63 -29 24 -16 58 -32 75 -35 17 -4 42
-18 54 -32 13 -13 31 -24 40 -24 9 0 37 -13 61 -30 24 -16 49 -30 55 -30 6 0
21 -11 34 -24 12 -14 36 -28 52 -31 16 -4 42 -19 57 -33 16 -15 44 -36 62 -47
19 -11 46 -27 60 -35 32 -19 82 -58 115 -87 13 -13 34 -28 47 -34 30 -17 84
-59 197 -154 52 -45 129 -108 170 -140 148 -118 540 -526 540 -563 0 -7 11
-19 24 -27 13 -9 29 -29 36 -45 7 -17 17 -30 22 -30 5 0 18 -21 30 -47 11 -27
28 -57 38 -68 10 -11 24 -40 30 -65 7 -25 18 -52 25 -60 24 -27 35 -102 35
-255 0 -163 -12 -271 -34 -314 -8 -15 -20 -68 -26 -117 -7 -49 -20 -107 -31
-129 -10 -22 -23 -85 -29 -139 -6 -54 -20 -122 -32 -150 -16 -41 -21 -90 -29
-246 -5 -107 -13 -233 -19 -280 -14 -118 -12 -254 5 -395 8 -66 15 -147 15
-180 0 -45 6 -72 25 -108 14 -26 30 -70 35 -99 6 -28 19 -60 29 -69 11 -10 24
-34 31 -54 7 -20 22 -48 35 -62 12 -14 35 -41 51 -59 16 -19 49 -53 74 -76 24
-24 56 -55 71 -70 15 -16 31 -28 36 -28 5 0 27 -13 49 -30 21 -16 44 -30 50
-30 6 0 23 -9 37 -20 14 -12 51 -29 81 -40 30 -10 65 -25 78 -34 37 -24 197
-39 353 -32 143 6 208 17 236 42 8 8 31 19 50 26 19 6 48 22 65 35 17 12 35
23 39 23 5 0 40 28 79 63 64 57 96 89 166 169 14 16 36 41 49 55 12 14 28 40
33 57 6 17 21 42 33 56 13 14 28 43 34 66 6 22 20 49 30 58 11 10 23 36 26 59
4 23 16 53 26 67 10 14 25 58 34 98 8 40 22 83 30 96 11 16 20 77 30 192 8 93
17 187 20 209 3 22 -3 135 -14 251 -15 162 -24 220 -39 250 -11 21 -23 59 -27
84 -4 25 -18 65 -31 90 -13 25 -27 61 -30 80 -4 19 -17 46 -29 60 -13 14 -26
39 -30 56 -3 18 -15 40 -26 50 -12 10 -27 34 -35 52 -15 36 -40 71 -101 139
-60 68 -70 64 -219 -85 -117 -116 -194 -215 -194 -250 0 -7 -11 -32 -24 -55
-19 -32 -27 -67 -36 -151 -6 -60 -13 -113 -16 -118 -17 -27 -34 -204 -34 -353
-1 -233 -13 -360 -38 -410 -11 -22 -23 -66 -27 -97 -7 -64 -28 -88 -77 -88
-28 0 -48 15 -135 102 -76 75 -94 104 -115 181 -29 109 -33 167 -14 244 9 37
20 95 25 129 5 33 19 76 30 95 12 19 21 41 21 50 0 8 16 46 35 85 19 38 35 74
35 80 0 5 11 25 24 43 14 19 28 45 31 60 3 15 17 40 30 55 14 16 25 34 25 41
0 6 12 27 26 46 14 19 32 49 40 68 8 19 23 40 33 47 10 8 22 26 26 41 3 15 18
42 33 60 15 18 39 48 55 67 15 18 27 37 27 41 0 14 64 96 211 275 12 14 39 50
61 80 22 30 76 95 121 145 45 49 94 103 110 120 15 16 43 50 63 75 56 72 142
167 239 266 349 357 496 501 650 632 128 110 220 191 263 233 52 49 173 149
181 149 10 0 83 58 121 95 14 14 30 25 36 25 6 0 19 10 30 21 10 12 38 30 62
40 23 10 42 23 42 28 0 6 15 18 33 27 17 9 45 27 60 40 16 13 36 24 46 24 10
0 26 10 37 21 10 12 38 30 60 39 23 10 45 23 48 29 4 6 28 20 54 31 25 11 53
27 62 34 8 8 26 17 40 21 14 4 35 16 48 26 13 10 40 23 60 30 20 7 53 23 72
35 19 13 42 24 51 24 9 0 41 13 71 29 30 16 72 33 94 36 21 4 52 16 67 27 15
10 61 25 103 32 41 7 83 21 94 31 13 12 48 21 112 27 57 6 109 18 133 31 34
17 80 23 295 38 274 19 411 18 930 -5z"/>
<path d="M8270 10683 c-111 -6 -100 108 -100 -1068 0 -992 1 -1022 19 -1039
17 -16 43 -17 249 -14 173 2 233 6 245 16 14 12 17 59 19 402 2 294 6 392 15
401 20 20 64 -1 90 -41 12 -19 30 -46 41 -60 10 -14 24 -41 31 -61 6 -20 23
-47 36 -59 14 -13 25 -29 25 -35 0 -6 12 -27 26 -46 14 -19 32 -49 39 -66 8
-18 18 -33 23 -33 5 0 17 -18 27 -40 10 -22 24 -45 32 -52 8 -6 23 -28 34 -47
59 -106 129 -209 167 -244 l30 -29 276 -4 c271 -4 275 -4 287 17 14 27 4 65
-29 106 -15 18 -39 48 -54 67 -16 18 -28 38 -28 42 0 5 -23 41 -50 79 -28 39
-59 88 -70 110 -11 22 -36 60 -55 85 -20 25 -46 69 -60 98 -14 28 -29 52 -35
52 -5 0 -18 17 -29 38 -11 21 -26 44 -35 51 -8 7 -18 26 -21 42 -11 49 3 85
43 112 67 45 163 139 184 181 11 22 28 50 38 61 17 19 53 161 67 263 3 24 -1
70 -10 110 -9 37 -21 89 -27 116 -18 83 -122 226 -215 296 -25 19 -61 47 -78
61 -18 15 -48 30 -67 34 -19 4 -56 18 -81 31 -28 14 -81 27 -133 34 -47 6 -99
16 -114 22 -26 12 -597 20 -752 11z m749 -512 c50 -10 82 -32 125 -84 34 -43
45 -97 34 -177 -6 -49 -13 -60 -56 -102 -58 -55 -91 -62 -276 -56 -156 4 -149
-6 -142 208 2 91 7 172 11 181 3 9 16 21 28 27 26 13 214 15 276 3z"/>
<path d="M10124 10684 c-12 -3 -31 -16 -43 -28 l-22 -24 1 -1018 c1 -939 2
-1020 17 -1037 16 -17 34 -18 249 -15 171 2 235 6 247 16 13 11 16 53 19 287
2 227 6 277 18 289 10 10 54 18 140 25 69 6 157 17 195 25 39 8 103 18 143 22
55 5 81 12 101 30 15 12 41 26 57 30 31 8 144 100 206 168 20 23 48 52 61 66
14 14 28 36 32 50 4 14 17 38 27 53 11 15 26 49 33 75 7 26 20 65 30 86 27 63
22 232 -10 321 -13 39 -25 77 -25 85 0 9 -11 31 -24 50 -13 19 -27 46 -31 60
-9 29 -30 54 -135 156 -41 41 -80 74 -86 74 -6 0 -19 9 -29 20 -9 10 -34 24
-54 31 -20 6 -55 22 -79 36 -29 16 -69 27 -129 34 -48 5 -117 14 -153 20 -66
11 -717 22 -756 13z m861 -549 c98 -55 152 -141 141 -223 -10 -71 -59 -136
-134 -178 l-65 -35 -141 -2 c-165 -2 -183 4 -188 61 -2 20 -1 115 2 210 5 157
7 175 24 188 15 10 55 14 159 14 l139 0 63 -35z"/>
<path d="M11615 8091 c-27 -4 -64 -15 -82 -24 -17 -9 -61 -21 -98 -26 -36 -5
-80 -19 -99 -30 -18 -12 -51 -27 -72 -35 -40 -14 -105 -52 -136 -80 -10 -8
-34 -26 -55 -39 -51 -32 -152 -136 -199 -204 -22 -31 -50 -67 -62 -81 -13 -14
-30 -43 -38 -66 -8 -22 -23 -50 -33 -61 -10 -11 -21 -39 -25 -61 -3 -23 -18
-66 -33 -95 l-28 -53 0 -256 0 -255 28 -47 c15 -26 30 -68 34 -94 3 -25 16
-58 28 -73 13 -14 30 -42 39 -61 28 -60 77 -121 176 -218 133 -130 131 -129
177 -147 23 -9 44 -22 47 -30 2 -7 27 -20 55 -30 27 -9 55 -23 61 -31 7 -7 35
-21 63 -29 28 -8 61 -22 74 -30 14 -9 90 -23 197 -36 l175 -20 160 19 c108 14
174 27 203 41 24 11 61 25 84 31 22 5 49 19 59 30 10 11 33 23 52 26 19 4 48
18 63 33 16 14 52 44 79 65 45 35 51 44 51 76 0 23 -9 50 -25 71 -13 19 -32
48 -41 64 -9 17 -26 40 -38 51 -12 12 -34 38 -51 59 -16 21 -49 58 -72 82 -40
42 -45 45 -80 38 -21 -3 -47 -15 -58 -25 -11 -11 -38 -26 -60 -35 -22 -10 -49
-25 -60 -35 -11 -10 -38 -23 -60 -29 -22 -6 -58 -20 -80 -31 -60 -31 -202 -28
-270 5 -27 14 -59 25 -70 25 -11 0 -40 14 -65 30 -25 16 -50 30 -55 30 -15 0
-165 143 -165 156 0 6 -13 31 -30 55 -16 24 -32 60 -36 79 -3 19 -14 56 -25
82 -23 57 -27 193 -5 223 7 11 21 51 29 90 9 38 21 71 27 73 6 2 19 20 29 40
18 35 112 129 180 180 17 13 48 28 68 34 20 5 49 20 66 31 27 20 40 22 195 22
166 0 167 0 206 -27 21 -16 49 -28 61 -28 12 0 39 -12 58 -27 56 -43 106 -72
132 -79 20 -5 33 3 67 39 76 80 98 107 98 122 0 8 26 45 59 83 107 125 93 181
-70 267 -26 13 -49 31 -52 39 -4 9 -25 19 -48 22 -22 4 -53 17 -68 30 -18 15
-51 27 -95 34 -36 6 -85 20 -107 32 -37 19 -60 21 -213 24 -94 1 -193 -1 -221
-5z"/>
<path d="M10288 8033 c-45 -7 -138 -107 -213 -228 -11 -18 -41 -56 -66 -86
-25 -30 -54 -70 -64 -89 -17 -33 -68 -103 -91 -125 -10 -10 -23 -28 -113 -155
-22 -30 -49 -66 -60 -80 -62 -75 -80 -98 -95 -125 -9 -16 -32 -50 -51 -75 -19
-25 -44 -58 -54 -75 -45 -69 -68 -101 -111 -146 l-45 -49 -34 17 c-18 9 -42
31 -52 47 -19 31 -35 52 -96 128 -18 22 -33 43 -33 48 0 7 -38 59 -79 110 -30
36 -67 90 -87 125 -9 17 -38 55 -64 85 -26 30 -53 66 -60 80 -14 28 -39 62
-85 118 -31 38 -45 56 -92 127 -14 22 -31 45 -37 51 -6 7 -27 33 -46 59 -19
25 -47 61 -62 80 -16 18 -28 38 -28 44 0 7 -21 34 -46 61 l-47 50 -86 0 c-47
0 -93 -5 -101 -10 -13 -8 -15 -138 -18 -1053 -2 -1017 -2 -1044 17 -1061 17
-15 46 -17 245 -19 l226 -1 28 27 27 28 0 347 c0 191 4 353 8 360 5 6 24 12
43 12 31 0 37 -4 50 -37 9 -20 40 -65 70 -100 30 -35 54 -70 54 -78 0 -7 16
-33 35 -57 102 -125 120 -148 139 -185 9 -18 26 -43 39 -57 46 -52 69 -82 90
-120 13 -24 33 -43 51 -49 26 -9 32 -6 70 37 60 67 106 127 106 138 0 6 12 25
28 44 54 66 73 93 86 126 8 18 26 44 40 57 14 14 26 30 26 36 0 7 9 20 21 31
12 10 30 35 40 54 45 81 116 159 146 160 29 0 33 -44 33 -383 0 -315 1 -345
18 -359 28 -26 50 -28 272 -31 203 -3 214 -2 237 17 l24 21 0 1023 c-1 1128 2
1073 -62 1086 -32 6 -44 6 -91 -1z"/>
</g>
</svg>
